<?xml version="1.0" encoding="utf-8"?>
<!-- Generator: Adobe Illustrator 20.1.0, SVG Export Plug-In . SVG Version: 6.00 Build 0)  -->
<svg version="1.1" id="Layer_1" xmlns="http://www.w3.org/2000/svg" xmlns:xlink="http://www.w3.org/1999/xlink" x="0px" y="0px"
	 viewBox="0 0 260 260" style="enable-background:new 0 0 260 260;" xml:space="preserve">
<g id="XMLID_246_">
	<g id="XMLID_30_">
		<path id="XMLID_31_" d="M87.3,115.3v29.4c0,0,28.5-0.1,40.2-0.1c-6.3,19.1-16.1,29.4-40.2,29.4c-24.4,0-43.4-19.7-43.4-44.1
			s19.1-44.1,43.4-44.1c12.9,0,21.2,4.5,28.9,10.8c6.1-6.1,5.6-7,21.2-21.7c-13.2-12-30.8-19.3-50-19.3C46.3,55.7,13,89,13,130
			s33.3,74.3,74.3,74.3c61.4,0,76.3-53.4,71.3-89C144.1,115.3,87.3,115.3,87.3,115.3z M221.2,116.7V91h-18.4v25.8h-26.5v18.4h26.5
			v26.5h18.4v-26.5H247v-18.4H221.2z"/>
	</g>
</g>
</svg>
