<?xml version="1.0" encoding="utf-8"?>
<!-- Generator: Adobe Illustrator 20.1.0, SVG Export Plug-In . SVG Version: 6.00 Build 0)  -->
<svg version="1.1" id="Layer_1" xmlns="http://www.w3.org/2000/svg" xmlns:xlink="http://www.w3.org/1999/xlink" x="0px" y="0px"
	 viewBox="0 0 260 260" style="enable-background:new 0 0 260 260;" xml:space="preserve">
<g id="XMLID_138_">
	<path id="XMLID_142_" d="M220.5,67.4c-2.4-6.3-5.7-11.6-11-16.9c-5.3-5.3-10.6-8.6-16.9-11c-6.1-2.4-13.1-4-23.2-4.4
		c-10.2-0.4-13.4-0.6-39.4-0.6s-29.2,0.1-39.4,0.6c-10.2,0.4-17.1,2.1-23.2,4.4c-6.3,2.4-11.6,5.7-16.9,11s-8.6,10.6-11,16.9
		c-2.4,6.1-4,13.1-4.4,23.2c-0.4,10.2-0.6,13.4-0.6,39.4s0.1,29.2,0.6,39.4c0.4,10.2,2.1,17.1,4.4,23.2c2.4,6.3,5.7,11.6,11,16.9
		c5.3,5.3,10.6,8.6,16.9,11c6.1,2.4,13.1,4,23.2,4.4c10.2,0.4,13.4,0.6,39.4,0.6s29.2-0.1,39.4-0.6c10.2-0.4,17.1-2.1,23.2-4.4
		c6.3-2.4,11.6-5.7,16.9-11c5.3-5.3,8.6-10.6,11-16.9c2.4-6.1,4-13.1,4.4-23.2c0.4-10.2,0.6-13.4,0.6-39.4s-0.1-29.2-0.6-39.4
		C224.5,80.4,222.8,73.5,220.5,67.4z M207.7,168.6c-0.4,9.3-2,14.4-3.3,17.7c-1.7,4.4-3.8,7.7-7.2,11c-3.3,3.3-6.5,5.4-11,7.2
		c-3.4,1.3-8.4,2.9-17.7,3.3c-10.1,0.4-13.1,0.6-38.6,0.6s-28.6-0.1-38.6-0.6c-9.3-0.4-14.4-2-17.7-3.3c-4.4-1.7-7.7-3.8-11-7.2
		c-3.3-3.3-5.4-6.5-7.2-11c-1.3-3.4-2.9-8.4-3.3-17.7c-0.4-10.1-0.6-13.1-0.6-38.6s0.1-28.6,0.6-38.6c0.4-9.3,2-14.4,3.3-17.7
		c1.7-4.4,3.8-7.7,7.2-11c3.3-3.3,6.5-5.4,11-7.2c3.4-1.3,8.4-2.9,17.7-3.3c10.1-0.4,13.1-0.6,38.6-0.6s28.6,0.1,38.6,0.6
		c9.3,0.4,14.4,2,17.7,3.3c4.4,1.7,7.7,3.8,11,7.2c3.3,3.3,5.4,6.5,7.2,11c1.3,3.4,2.9,8.4,3.3,17.7c0.4,10.1,0.6,13.1,0.6,38.6
		S208.2,158.6,207.7,168.6z"/>
	<path id="XMLID_145_" d="M129.9,80.9c-27.1,0-49.1,22-49.1,49.1s22,49.1,49.1,49.1s49.1-22,49.1-49.1S157,80.9,129.9,80.9z
		 M129.9,161.9c-17.6,0-31.9-14.2-31.9-31.9c0-17.6,14.2-31.9,31.9-31.9s31.9,14.2,31.9,31.9C161.8,147.6,147.5,161.9,129.9,161.9z"
		/>
	<circle id="XMLID_143_" cx="180.9" cy="79" r="11.4"/>
</g>
</svg>
